<?xml version="1.0" encoding="utf-8"?>
<!-- Generator: Adobe Illustrator 26.2.1, SVG Export Plug-In . SVG Version: 6.00 Build 0)  -->
<svg version="1.1" xmlns="http://www.w3.org/2000/svg" xmlns:xlink="http://www.w3.org/1999/xlink" x="0px" y="0px"
	 viewBox="0 0 500 500" style="enable-background:new 0 0 500 500;" xml:space="preserve">
<style type="text/css">
	.st0{display:none;}
	.st1{display:inline;fill:#FF4343;}
	.st2{display:inline;fill:#4560FF;}
	.st3{display:inline;fill:#FFE445;}
	.st4{display:inline;fill:#FFA748;}
	.st5{display:inline;fill:#9B6654;}
	.st6{fill:#314754;}
	.st7{fill:#4560FF;}
</style>
<g id="Calque_1" class="st0">
	<rect x="-66.6" y="52.2" class="st1" width="30.5" height="30.5"/>
	<rect x="-66.6" y="91.3" class="st2" width="30.5" height="30.5"/>
	<rect x="-66.6" y="130.4" class="st3" width="30.5" height="30.5"/>
	<rect x="-66.6" y="169.5" class="st4" width="30.5" height="30.5"/>
	<rect x="-66.6" y="208.6" class="st5" width="30.5" height="30.5"/>
	<rect x="-66.6" y="247.6" class="st1" width="30.5" height="30.5"/>
	
		<image style="display:inline;overflow:visible;" width="264" height="62" xlink:href="CDEB4C11.jpg"  transform="matrix(1 0 0 1 -281.069 310.6092)">
	</image>
</g>
<g id="Calque_2">
	<g>
		<g>
			<path class="st6" d="M159.3,127.2c-39.6-13.6-82.7-18.2-126.3-11.6L86.4,335c0,0,21.4,77.4,92.8,119.6
				c-24.8-31.5-43.3-68.6-53.4-110C107.1,267.6,121.3,190.1,159.3,127.2z"/>
			<path class="st6" d="M339.3,362c-0.6-8.1-1.5-16.2-2.8-24.4c-1.1-6.9-2.5-14-4.2-20.9c-3.5-14.3-8.1-28.2-13.6-41.2
				c-34.1,40.5-56.1,90.6-61.7,144.1v0.1c-2.2,19.7-2.1,39.9,0.4,60.3c17.5,1.9,36.7,1.8,57.7-0.8c1.9-0.2,3.8-0.5,5.7-0.7
				C335.3,442.3,342,402.5,339.3,362z"/>
			<path class="st6" d="M308.5,254.3c-6.7-12.6-14.3-24.4-22.9-35.6c-4.5-6-9.2-11.7-14.2-17.2c-10.3-11.6-21.7-22.2-33.9-31.7
				c-17.7-14-37.1-25.6-57.7-34.6C143.1,194,129.1,267,146.7,339.5c13.3,54.2,42.1,100.4,80.7,135.2c2.5,0.6,5,1.3,7.7,1.9
				c-3.1-30.6-1.2-60.9,5.3-89.9C251.3,337.2,274.9,291.6,308.5,254.3z"/>
			<path class="st7" d="M430.3,120.8c-48.3,19.6-91.1,53.2-121.2,98c8.6,11.1,16.2,23,22.9,35.6l10.1,21.2
				c5.5,13,10.1,26.9,13.6,41.2c1.8,6.9,3.2,14,4.2,20.9c31.4-21.7,67.1-37,104.4-44.8C472.8,232.5,460.1,171.9,430.3,120.8z"/>
			<path class="st7" d="M362.7,362c2.7,40.4-4,80-18.4,116.2c45-28.5,80.7-68,102.5-121c5.5-13.6,10-27.3,13.1-41.3
				C424.9,324.6,391.7,340.2,362.7,362z"/>
			<path class="st7" d="M294.9,201.5c31.4-44.7,74.7-78.6,123.7-99.1C394.5,68,362.4,39,323.3,18.7L261,169.8
				C273.2,179.3,284.6,189.9,294.9,201.5z"/>
		</g>
	</g>
</g>
</svg>
